<svg width="33" height="34" viewBox="0 0 33 34" fill="none" xmlns="http://www.w3.org/2000/svg">
<rect width="31" height="31" rx="15.5" fill="#9D0253"/>
<g filter="url(#filter0_d_725_4)">
<path d="M3.4867 22.675C2.9287 22.675 2.4697 22.513 2.1097 22.189C1.7677 21.865 1.6327 21.379 1.7047 20.731C1.7227 20.497 1.7767 20.254 1.8667 20.002C1.9747 19.732 2.0917 19.471 2.2177 19.219C2.3257 18.967 2.4337 18.841 2.5417 18.841C2.6317 18.841 2.6407 18.913 2.5687 19.057C2.3347 19.543 2.2177 19.975 2.2177 20.353C2.2177 20.749 2.3527 21.046 2.6227 21.244C2.9107 21.442 3.2797 21.541 3.7297 21.541C4.6117 21.541 5.5837 21.262 6.6457 20.704C7.7077 20.128 8.8057 19.399 9.9397 18.517C11.0737 17.617 12.1627 16.681 13.2067 15.709C12.5047 15.673 11.8477 15.637 11.2357 15.601C10.6237 15.565 10.0837 15.547 9.6157 15.547C9.2197 15.547 8.7427 15.583 8.1847 15.655C7.6267 15.727 7.1947 15.916 6.8887 16.222C6.7627 16.348 6.6457 16.537 6.5377 16.789C6.4477 17.023 6.4027 17.266 6.4027 17.518C6.4027 17.59 6.4027 17.662 6.4027 17.734C6.4207 17.788 6.4387 17.851 6.4567 17.923C6.3847 17.887 6.2497 17.86 6.0517 17.842C5.8717 17.806 5.7547 17.689 5.7007 17.491C5.6827 17.437 5.6737 17.347 5.6737 17.221C5.6737 16.933 5.7817 16.699 5.9977 16.519C6.2137 16.321 6.4747 16.15 6.7807 16.006C7.0867 15.862 7.3657 15.736 7.6177 15.628C8.2117 15.376 8.8237 15.169 9.4537 15.007C10.0837 14.845 10.7227 14.764 11.3707 14.764C12.1087 14.764 13.0267 14.791 14.1247 14.845C14.9707 14.017 15.7537 13.234 16.4737 12.496C17.1937 11.758 17.7787 11.146 18.2287 10.66C18.8587 9.994 19.5247 9.427 20.2267 8.959C20.9467 8.473 21.6757 8.131 22.4137 7.933H20.9287C20.2987 7.933 19.6147 7.96 18.8767 8.014C18.1387 8.068 17.4457 8.185 16.7977 8.365C16.1497 8.545 15.6097 8.815 15.1777 9.175C14.9077 9.409 14.7007 9.679 14.5567 9.985C14.4307 10.273 14.3677 10.543 14.3677 10.795C14.3677 11.137 14.4667 11.371 14.6647 11.497C14.6827 11.497 14.6917 11.506 14.6917 11.524C14.6917 11.578 14.6287 11.641 14.5027 11.713C14.3767 11.767 14.2867 11.776 14.2327 11.74C14.0527 11.614 13.8907 11.362 13.7467 10.984C13.6207 10.588 13.5757 10.273 13.6117 10.039C13.7017 9.481 13.9447 9.031 14.3407 8.689C14.7547 8.329 15.2587 8.05 15.8527 7.852C16.4647 7.654 17.1037 7.519 17.7697 7.447C18.4537 7.375 19.1017 7.33 19.7137 7.312C20.3437 7.294 20.8747 7.285 21.3067 7.285H24.2497C24.2857 7.285 24.2947 7.294 24.2767 7.312C24.7267 7.114 25.1947 6.916 25.6807 6.718C26.1847 6.52 26.6167 6.421 26.9767 6.421C27.0667 6.421 27.1567 6.448 27.2467 6.502C27.3547 6.556 27.4087 6.61 27.4087 6.664C27.4087 6.754 27.2287 6.799 26.8687 6.799C26.6887 6.799 26.4997 6.835 26.3017 6.907C26.1217 6.961 25.8787 7.15 25.5727 7.474C25.3207 7.726 25.0057 8.131 24.6277 8.689C24.2497 9.247 23.8357 9.904 23.3857 10.66C22.9357 11.398 22.4857 12.19 22.0357 13.036C21.5857 13.864 21.1537 14.683 20.7397 15.493C20.3257 16.303 19.9657 17.05 19.6597 17.734C19.6237 17.842 19.5247 18.094 19.3627 18.49C19.2007 18.868 19.0477 19.291 18.9037 19.759C18.7597 20.209 18.6877 20.614 18.6877 20.974C18.6877 21.46 18.8587 21.703 19.2007 21.703C19.3627 21.703 19.5247 21.667 19.6867 21.595C19.9207 21.505 20.1637 21.37 20.4157 21.19C20.6677 21.01 20.9107 20.803 21.1447 20.569C21.6127 20.119 22.0087 19.687 22.3327 19.273C22.6567 18.841 22.8547 18.58 22.9267 18.49C22.9807 18.4 23.0437 18.355 23.1157 18.355C23.1877 18.355 23.2237 18.4 23.2237 18.49C23.2237 18.544 23.1967 18.616 23.1427 18.706C23.0167 18.886 22.7827 19.201 22.4407 19.651C22.0987 20.083 21.6937 20.524 21.2257 20.974C20.7757 21.424 20.2897 21.766 19.7677 22C19.6057 22.072 19.4347 22.126 19.2547 22.162C19.0747 22.216 18.8947 22.243 18.7147 22.243C18.3547 22.243 18.0217 22.117 17.7157 21.865C17.4277 21.613 17.2837 21.199 17.2837 20.623C17.2837 20.101 17.3827 19.543 17.5807 18.949C17.7967 18.337 17.9947 17.842 18.1747 17.464C18.5347 16.69 18.9577 15.826 19.4437 14.872C19.9477 13.918 20.4607 12.964 20.9827 12.01C21.5227 11.056 22.0177 10.192 22.4677 9.418C22.9177 8.644 23.2867 8.068 23.5747 7.69C23.2867 7.69 22.8997 7.807 22.4137 8.041C21.9277 8.257 21.4057 8.554 20.8477 8.932C20.3077 9.292 19.8037 9.715 19.3357 10.201C18.7777 10.777 18.1297 11.479 17.3917 12.307C16.6717 13.135 15.8887 13.999 15.0427 14.899C15.4567 14.917 15.8707 14.935 16.2847 14.953C16.6987 14.953 17.1127 14.953 17.5267 14.953C17.8147 14.953 18.1297 14.926 18.4717 14.872C18.8317 14.8 19.1647 14.692 19.4707 14.548C19.4707 14.548 19.4167 14.647 19.3087 14.845C19.2187 15.025 19.0567 15.214 18.8227 15.412C18.6067 15.592 18.3097 15.7 17.9317 15.736C17.5897 15.754 17.2477 15.772 16.9057 15.79C16.5637 15.79 16.2217 15.79 15.8797 15.79C15.5917 15.79 15.3037 15.79 15.0157 15.79C14.7457 15.79 14.4757 15.781 14.2057 15.763C13.3777 16.627 12.5137 17.473 11.6137 18.301C10.7137 19.111 9.8047 19.849 8.8867 20.515C7.9687 21.181 7.0507 21.703 6.1327 22.081C5.2327 22.477 4.3507 22.675 3.4867 22.675Z" fill="white"/>
</g>
<path d="M9.43175 25.152C9.39442 25.152 9.36508 25.1413 9.34375 25.12C9.32242 25.104 9.32242 25.0907 9.34375 25.08C9.46108 25.0587 9.56242 25.016 9.64775 24.952C9.73308 24.8827 9.80242 24.7973 9.85575 24.696C9.96775 24.5093 10.0771 24.3227 10.1838 24.136C10.2904 23.944 10.3944 23.752 10.4958 23.56L11.2638 22.144C11.3864 21.9253 11.4931 21.7147 11.5838 21.512C11.6798 21.3093 11.7544 21.1627 11.8078 21.072C11.8451 21.0027 11.9091 20.9413 11.9998 20.888C12.0958 20.8293 12.1891 20.784 12.2798 20.752C12.2478 20.752 12.2158 20.752 12.1838 20.752C12.1518 20.7467 12.1171 20.744 12.0798 20.744C11.9144 20.744 11.7331 20.7547 11.5358 20.776C11.3438 20.792 11.1544 20.8187 10.9678 20.856C10.7864 20.8933 10.6264 20.944 10.4878 21.008C10.3491 21.072 10.2558 21.1493 10.2078 21.24C10.1864 21.288 10.1678 21.336 10.1518 21.384C10.1358 21.432 10.1278 21.48 10.1278 21.528C10.1278 21.6507 10.1704 21.7387 10.2558 21.792C10.2611 21.792 10.2638 21.7973 10.2638 21.808C10.2638 21.8187 10.2531 21.8293 10.2318 21.84C10.2158 21.8507 10.1998 21.8533 10.1838 21.848C10.1358 21.8213 10.0771 21.7573 10.0078 21.656C9.93842 21.5493 9.89575 21.4613 9.87975 21.392C9.86375 21.328 9.85575 21.2693 9.85575 21.216C9.85575 21.0773 9.90108 20.9707 9.99175 20.896C10.0824 20.816 10.1971 20.76 10.3358 20.728C10.4744 20.6907 10.6158 20.6693 10.7598 20.664C10.9091 20.6533 11.0398 20.648 11.1518 20.648C11.3224 20.648 11.5251 20.648 11.7598 20.648C11.9944 20.6427 12.2104 20.64 12.4078 20.64C12.4558 20.64 12.5091 20.64 12.5678 20.64C12.6264 20.6347 12.6878 20.632 12.7518 20.632C12.8958 20.632 13.0451 20.64 13.1998 20.656C13.3544 20.672 13.4958 20.7067 13.6238 20.76C13.7518 20.8133 13.8504 20.896 13.9198 21.008C13.9891 21.1253 14.0238 21.2533 14.0238 21.392C14.0238 21.5253 13.9971 21.6587 13.9438 21.792C13.8904 21.9253 13.8264 22.04 13.7517 22.136C13.7038 22.1947 13.6478 22.2533 13.5838 22.312C13.5198 22.3707 13.4478 22.4267 13.3678 22.48C13.2878 22.5333 13.1998 22.584 13.1038 22.632C13.0131 22.6747 12.9038 22.7093 12.7758 22.736C12.7704 22.736 12.7651 22.744 12.7598 22.76C12.7598 22.776 12.7651 22.784 12.7758 22.784C12.8024 22.7893 12.8478 22.7973 12.9118 22.808C12.9811 22.8133 13.0424 22.8213 13.0958 22.832C13.2824 22.8693 13.4371 22.9493 13.5598 23.072C13.6878 23.1893 13.7517 23.3493 13.7517 23.552C13.7517 23.7813 13.6904 23.992 13.5677 24.184C13.4504 24.376 13.2984 24.5413 13.1118 24.68C12.9251 24.8133 12.7304 24.9173 12.5278 24.992C12.2718 25.088 11.9784 25.136 11.6478 25.136C11.4504 25.136 11.2451 25.1173 11.0318 25.08C10.8184 25.0427 10.6238 24.9787 10.4478 24.888C10.4104 24.8667 10.3731 24.8507 10.3358 24.84C10.2984 24.824 10.2584 24.816 10.2158 24.816C10.1411 24.816 10.0611 24.8373 9.97575 24.88C9.92242 24.9013 9.85308 24.9413 9.76775 25C9.68242 25.0587 9.58642 25.1067 9.47975 25.144C9.46908 25.1493 9.45308 25.152 9.43175 25.152ZM11.3918 25.024C11.5304 25.024 11.6691 25.0107 11.8078 24.984C11.9464 24.952 12.0718 24.9147 12.1838 24.872C12.3811 24.7973 12.5624 24.6933 12.7278 24.56C12.8931 24.4213 13.0264 24.2587 13.1278 24.072C13.2344 23.88 13.2878 23.6667 13.2878 23.432C13.2878 23.2773 13.2478 23.16 13.1678 23.08C13.0878 22.9947 12.9864 22.936 12.8638 22.904C12.7411 22.872 12.6131 22.856 12.4798 22.856C12.3784 22.856 12.2824 22.8613 12.1918 22.872C12.1011 22.8827 12.0184 22.896 11.9438 22.912C11.7944 22.9387 11.6611 22.968 11.5438 23C11.5224 22.9893 11.5251 22.9707 11.5518 22.944C11.5784 22.912 11.6131 22.8773 11.6558 22.84C11.7038 22.8027 11.7411 22.7733 11.7678 22.752C11.7784 22.7413 11.7998 22.7253 11.8318 22.704C11.8691 22.6773 11.8984 22.664 11.9198 22.664C12.1811 22.664 12.4131 22.648 12.6158 22.616C12.8238 22.584 13.0024 22.5067 13.1518 22.384C13.3011 22.256 13.4238 22.0587 13.5198 21.792C13.5678 21.6533 13.5918 21.5173 13.5918 21.384C13.5918 21.2293 13.5544 21.096 13.4798 20.984C13.4051 20.8667 13.2851 20.7973 13.1198 20.776C13.0984 20.7707 13.0744 20.768 13.0478 20.768C13.0211 20.768 12.9944 20.768 12.9678 20.768C12.8664 20.768 12.7544 20.7813 12.6318 20.808C12.5144 20.8347 12.4264 20.8853 12.3678 20.96C12.2344 21.136 12.1064 21.336 11.9838 21.56C11.8611 21.7787 11.7438 22.0027 11.6318 22.232C11.5198 22.456 11.4131 22.6667 11.3118 22.864C11.1891 23.104 11.0638 23.3467 10.9358 23.592C10.8078 23.8373 10.6824 24.0853 10.5598 24.336C10.5278 24.4 10.5118 24.4613 10.5118 24.52C10.5118 24.6267 10.5784 24.7307 10.7118 24.832C10.8024 24.9013 10.9064 24.952 11.0238 24.984C11.1464 25.0107 11.2691 25.024 11.3918 25.024ZM14.5639 25.064C14.3453 25.064 14.1933 25.0213 14.1079 24.936C14.0226 24.8507 13.9799 24.7467 13.9799 24.624C13.9799 24.4693 14.0199 24.304 14.0999 24.128C14.1853 23.952 14.2653 23.8027 14.3399 23.68C14.4253 23.552 14.5399 23.4187 14.6839 23.28C14.8279 23.1413 14.9853 23.024 15.1559 22.928C15.3266 22.832 15.4919 22.784 15.6519 22.784C15.7906 22.784 15.8866 22.8187 15.9399 22.888C15.9933 22.952 16.0199 23.0293 16.0199 23.12C16.0199 23.2853 15.9693 23.4213 15.8679 23.528C15.7719 23.6347 15.6519 23.7227 15.5079 23.792C15.3639 23.856 15.2253 23.9093 15.0919 23.952C15.0119 23.9733 14.9186 23.9947 14.8119 24.016C14.7053 24.0373 14.6039 24.048 14.5079 24.048C14.4706 24.144 14.4413 24.2373 14.4199 24.328C14.3986 24.4187 14.3879 24.5013 14.3879 24.576C14.3879 24.6667 14.4093 24.7413 14.4519 24.8C14.4999 24.8587 14.5773 24.888 14.6839 24.888C14.7266 24.888 14.7773 24.8827 14.8359 24.872C14.8946 24.8613 14.9586 24.8453 15.0279 24.824C15.1879 24.7707 15.3453 24.6853 15.4999 24.568C15.6546 24.4507 15.7959 24.3253 15.9239 24.192C16.0573 24.0533 16.1586 23.9387 16.2279 23.848C16.2439 23.864 16.2519 23.8827 16.2519 23.904C16.2519 23.9307 16.2333 23.9733 16.1959 24.032C16.0893 24.1813 15.9506 24.336 15.7799 24.496C15.6093 24.656 15.4199 24.792 15.2119 24.904C15.0039 25.0107 14.7879 25.064 14.5639 25.064ZM14.5719 23.888C14.6413 23.8933 14.7186 23.8933 14.8039 23.888C14.8946 23.8773 14.9826 23.8587 15.0679 23.832C15.2866 23.768 15.4439 23.6667 15.5399 23.528C15.6413 23.384 15.6919 23.256 15.6919 23.144C15.6919 23.08 15.6786 23.0267 15.6519 22.984C15.6253 22.9413 15.5826 22.92 15.5239 22.92C15.3693 22.92 15.2306 22.9787 15.1079 23.096C14.9853 23.208 14.8786 23.3387 14.7879 23.488C14.6973 23.6373 14.6253 23.7707 14.5719 23.888ZM17.1881 25.024C17.1348 25.024 17.0895 25.0133 17.0521 24.992C17.0148 24.9707 16.9961 24.9307 16.9961 24.872C16.9961 24.7973 17.0148 24.712 17.0521 24.616C17.0895 24.52 17.1321 24.4267 17.1801 24.336C17.2281 24.24 17.2708 24.1627 17.3081 24.104C17.1215 24.3013 16.9268 24.488 16.7241 24.664C16.6228 24.7493 16.5108 24.8293 16.3881 24.904C16.2655 24.9787 16.1348 25.016 15.9961 25.016C15.9428 25.016 15.9055 25 15.8841 24.968C15.8628 24.9307 15.8521 24.888 15.8521 24.84C15.8521 24.8133 15.8548 24.7947 15.8601 24.784C15.8868 24.576 15.9535 24.36 16.0601 24.136C16.1668 23.912 16.2975 23.7013 16.4521 23.504C16.6068 23.3067 16.7641 23.1467 16.9241 23.024C17.1055 22.8853 17.3055 22.816 17.5241 22.816H18.4441C18.4708 22.816 18.4841 22.8267 18.4841 22.848C18.4841 22.8907 18.4601 22.912 18.4121 22.912C18.3588 22.912 18.3055 22.9467 18.2521 23.016C18.1988 23.08 18.1588 23.1333 18.1321 23.176C18.0948 23.2347 18.0361 23.3333 17.9561 23.472C17.8761 23.6107 17.7935 23.7627 17.7081 23.928C17.6281 24.088 17.5588 24.2373 17.5001 24.376C17.4415 24.5147 17.4121 24.616 17.4121 24.68C17.4121 24.7547 17.4495 24.792 17.5241 24.792C17.6041 24.792 17.6948 24.7547 17.7961 24.68C17.8975 24.6053 17.9988 24.5147 18.1001 24.408C18.2068 24.296 18.3028 24.1867 18.3881 24.08C18.4788 23.968 18.5508 23.88 18.6041 23.816C18.6361 23.848 18.6335 23.8933 18.5961 23.952C18.5641 24.0053 18.5348 24.048 18.5081 24.08C18.4015 24.2187 18.2788 24.3627 18.1401 24.512C18.0015 24.656 17.8495 24.7787 17.6841 24.88C17.5241 24.976 17.3588 25.024 17.1881 25.024ZM16.3241 24.744C16.3881 24.744 16.4761 24.6987 16.5881 24.608C16.7055 24.512 16.8308 24.3947 16.9641 24.256C17.0975 24.112 17.2228 23.9627 17.3401 23.808C17.4575 23.648 17.5535 23.504 17.6281 23.376C17.7081 23.2427 17.7481 23.1413 17.7481 23.072C17.7481 23.0133 17.7295 22.9733 17.6921 22.952C17.6601 22.9307 17.6175 22.92 17.5641 22.92C17.4788 22.92 17.3855 22.952 17.2841 23.016C17.1881 23.0747 17.1108 23.1333 17.0521 23.192C16.9881 23.2507 16.9108 23.344 16.8201 23.472C16.7348 23.5947 16.6495 23.7307 16.5641 23.88C16.4788 24.0293 16.4068 24.1733 16.3481 24.312C16.2895 24.4507 16.2601 24.5627 16.2601 24.648C16.2601 24.712 16.2815 24.744 16.3241 24.744ZM18.8997 25.024C18.8464 25.024 18.801 25.0133 18.7637 24.992C18.7264 24.9707 18.7077 24.9307 18.7077 24.872C18.7077 24.7973 18.7264 24.7093 18.7637 24.608C18.8064 24.5067 18.8517 24.4053 18.8997 24.304C18.9477 24.2027 18.9877 24.12 19.0197 24.056C19.0837 23.9333 19.145 23.8107 19.2037 23.688C19.2624 23.5653 19.313 23.4613 19.3557 23.376C19.3984 23.296 19.4197 23.2427 19.4197 23.216C19.4197 23.1733 19.3877 23.1733 19.3237 23.216C19.265 23.2587 19.209 23.3013 19.1557 23.344C19.0384 23.456 18.9157 23.5893 18.7877 23.744C18.6597 23.8933 18.561 24.0133 18.4917 24.104C18.4757 24.1253 18.4624 24.136 18.4517 24.136C18.441 24.136 18.4357 24.1227 18.4357 24.096C18.4357 24.0533 18.449 24.0133 18.4757 23.976C18.5504 23.8693 18.6384 23.752 18.7397 23.624C18.841 23.496 18.945 23.3733 19.0517 23.256C19.153 23.1493 19.257 23.0453 19.3637 22.944C19.4704 22.8427 19.6064 22.792 19.7717 22.792C19.8837 22.792 19.9397 22.8347 19.9397 22.92C19.9397 22.9947 19.9077 23.08 19.8437 23.176C19.8064 23.2347 19.7477 23.3333 19.6677 23.472C19.5877 23.6107 19.505 23.7627 19.4197 23.928C19.3397 24.088 19.2704 24.2373 19.2117 24.376C19.153 24.5147 19.1237 24.616 19.1237 24.68C19.1237 24.7547 19.161 24.792 19.2357 24.792C19.2944 24.792 19.3664 24.7627 19.4517 24.704C19.537 24.64 19.625 24.5653 19.7157 24.48C19.881 24.32 20.0304 24.1467 20.1637 23.96C20.3024 23.768 20.4197 23.584 20.5157 23.408C20.617 23.232 20.697 23.088 20.7557 22.976C20.7664 22.9547 20.777 22.9307 20.7877 22.904C20.8037 22.872 20.8277 22.8533 20.8597 22.848C20.8917 22.8427 20.961 22.84 21.0677 22.84C21.1744 22.84 21.273 22.8187 21.3637 22.776H21.3797C21.3957 22.776 21.4037 22.784 21.4037 22.8C21.4037 22.8427 21.369 22.8747 21.2997 22.896C21.2357 22.9173 21.161 22.9813 21.0757 23.088C20.9957 23.1947 20.9157 23.3253 20.8357 23.48C20.7557 23.6293 20.6837 23.784 20.6197 23.944C20.5557 24.104 20.5077 24.2507 20.4757 24.384C20.4437 24.5173 20.4357 24.616 20.4517 24.68C20.473 24.7547 20.5104 24.792 20.5637 24.792C20.633 24.792 20.729 24.7493 20.8517 24.664C20.9797 24.5787 21.1104 24.4773 21.2437 24.36C21.377 24.2373 21.4864 24.1253 21.5717 24.024C21.609 23.9813 21.6437 23.9387 21.6757 23.896C21.7077 23.8533 21.729 23.8267 21.7397 23.816C21.745 23.8213 21.7504 23.832 21.7557 23.848C21.761 23.8587 21.7637 23.8693 21.7637 23.88C21.7584 23.9173 21.745 23.9547 21.7237 23.992C21.7024 24.024 21.6784 24.0533 21.6517 24.08C21.5504 24.2133 21.4277 24.3547 21.2837 24.504C21.145 24.648 20.993 24.7707 20.8277 24.872C20.6677 24.9733 20.5024 25.024 20.3317 25.024C20.2784 25.024 20.217 25.0107 20.1477 24.984C20.0837 24.9573 20.0517 24.8987 20.0517 24.808C20.0517 24.7387 20.0704 24.6453 20.1077 24.528C20.145 24.4053 20.185 24.2853 20.2277 24.168C20.2757 24.0453 20.3157 23.9547 20.3477 23.896C20.2784 23.9973 20.193 24.112 20.0917 24.24C19.9957 24.3627 19.897 24.472 19.7957 24.568C19.6624 24.696 19.5184 24.8053 19.3637 24.896C19.2144 24.9813 19.0597 25.024 18.8997 25.024ZM21.9123 25.024C21.859 25.024 21.8136 25.0133 21.7763 24.992C21.739 24.9707 21.7203 24.9307 21.7203 24.872C21.7203 24.7973 21.739 24.7093 21.7763 24.608C21.819 24.5067 21.8643 24.4053 21.9123 24.304C21.9603 24.2027 22.0003 24.12 22.0323 24.056C22.059 24.008 22.0936 23.9333 22.1363 23.832C22.1843 23.7253 22.2323 23.616 22.2803 23.504C22.3336 23.3867 22.3763 23.288 22.4083 23.208C22.4456 23.128 22.4643 23.088 22.4643 23.088C22.4163 23.1413 22.3523 23.216 22.2723 23.312C22.1976 23.408 22.115 23.5093 22.0243 23.616C21.939 23.7173 21.859 23.8133 21.7843 23.904C21.715 23.9947 21.6643 24.0613 21.6323 24.104C21.6163 24.1253 21.603 24.136 21.5923 24.136C21.5816 24.136 21.5763 24.1227 21.5763 24.096C21.5763 24.0533 21.5896 24.0133 21.6163 23.976C21.6803 23.896 21.7576 23.8 21.8483 23.688C21.939 23.5707 22.0296 23.4533 22.1203 23.336C22.2163 23.2187 22.299 23.1147 22.3683 23.024C22.3256 23.024 22.2696 23.0267 22.2003 23.032C22.1363 23.0373 22.0776 23.0453 22.0243 23.056C21.971 23.0613 21.9416 23.064 21.9363 23.064C21.9096 23.064 21.9123 23.0427 21.9443 23C21.9763 22.9573 22.019 22.9147 22.0723 22.872C22.1256 22.8293 22.1656 22.808 22.1923 22.808C22.1976 22.808 22.2403 22.8107 22.3203 22.816C22.4003 22.816 22.459 22.816 22.4963 22.816C22.603 22.672 22.707 22.5067 22.8083 22.32C22.915 22.1333 23.019 21.928 23.1203 21.704C23.163 21.6987 23.235 21.6693 23.3363 21.616C23.443 21.5573 23.5256 21.4987 23.5843 21.44C23.611 21.4133 23.6323 21.4 23.6483 21.4C23.6803 21.4 23.6803 21.4213 23.6483 21.464C23.611 21.5067 23.547 21.5973 23.4563 21.736C23.3656 21.8693 23.2643 22.032 23.1523 22.224C23.0403 22.4107 22.9336 22.608 22.8323 22.816H23.4803C23.539 22.816 23.5683 22.824 23.5683 22.84C23.5683 22.8613 23.5283 22.8827 23.4483 22.904C23.3576 22.9307 23.2616 22.9467 23.1603 22.952C23.0643 22.9573 22.9736 22.968 22.8883 22.984C22.8083 23 22.7496 23.0347 22.7123 23.088C22.6803 23.1253 22.635 23.2053 22.5763 23.328C22.5176 23.4507 22.4536 23.592 22.3843 23.752C22.3203 23.9067 22.2643 24.064 22.2163 24.224C22.1683 24.3787 22.139 24.5093 22.1283 24.616V24.648C22.1283 24.6907 22.1416 24.7253 22.1683 24.752C22.195 24.7787 22.2216 24.792 22.2483 24.792C22.3176 24.792 22.4056 24.7493 22.5123 24.664C22.6243 24.5787 22.739 24.4773 22.8563 24.36C22.9736 24.2373 23.075 24.1253 23.1603 24.024C23.1976 23.9813 23.2296 23.9413 23.2563 23.904C23.2883 23.8667 23.307 23.8427 23.3123 23.832C23.323 23.8533 23.3283 23.8693 23.3283 23.88C23.3283 23.912 23.3176 23.9467 23.2963 23.984C23.2803 24.0213 23.2616 24.0533 23.2403 24.08C23.139 24.2133 23.0163 24.3547 22.8723 24.504C22.7283 24.648 22.5736 24.7707 22.4083 24.872C22.2483 24.9733 22.083 25.024 21.9123 25.024ZM22.3542 27.8C22.1516 27.8 21.9569 27.752 21.7702 27.656C21.5782 27.5653 21.4369 27.424 21.3462 27.232C21.3142 27.1627 21.2929 27.088 21.2822 27.008C21.2716 26.9333 21.2662 26.8587 21.2662 26.784V26.696C21.2662 26.6533 21.2716 26.6133 21.2822 26.576C21.2929 26.544 21.3196 26.528 21.3622 26.528C21.3729 26.528 21.3782 26.5333 21.3782 26.544C21.3782 26.576 21.3756 26.608 21.3702 26.64C21.3649 26.672 21.3622 26.7067 21.3622 26.744C21.3622 26.9893 21.4422 27.176 21.6022 27.304C21.7569 27.432 21.9516 27.496 22.1862 27.496C22.2822 27.496 22.3809 27.4853 22.4822 27.464C22.5836 27.4427 22.6796 27.4133 22.7702 27.376C23.1063 27.232 23.3969 27.0267 23.6423 26.76C23.8929 26.4987 24.1116 26.2027 24.2983 25.872C24.4849 25.5413 24.6529 25.2053 24.8023 24.864C24.8876 24.6613 24.9623 24.464 25.0263 24.272C25.0956 24.08 25.1569 23.9067 25.2103 23.752C25.1569 23.8267 25.0876 23.9173 25.0023 24.024C24.9169 24.1307 24.8316 24.2347 24.7463 24.336C24.6609 24.432 24.5863 24.5093 24.5223 24.568C24.3889 24.696 24.2449 24.8053 24.0903 24.896C23.9409 24.9813 23.7863 25.024 23.6263 25.024C23.5729 25.024 23.5276 25.0133 23.4903 24.992C23.4529 24.9707 23.4342 24.9307 23.4342 24.872C23.4342 24.7973 23.4529 24.7093 23.4903 24.608C23.5329 24.5067 23.5783 24.4053 23.6263 24.304C23.6743 24.2027 23.7143 24.12 23.7463 24.056C23.8103 23.9333 23.8716 23.8107 23.9303 23.688C23.9889 23.5653 24.0396 23.4613 24.0822 23.376C24.1249 23.296 24.1463 23.2427 24.1463 23.216C24.1463 23.1733 24.1143 23.1733 24.0503 23.216C23.9916 23.2587 23.9356 23.3013 23.8823 23.344C23.7649 23.456 23.6423 23.5893 23.5143 23.744C23.3863 23.8933 23.2876 24.0133 23.2183 24.104C23.2023 24.1253 23.1889 24.136 23.1783 24.136C23.1676 24.136 23.1623 24.1227 23.1623 24.096C23.1623 24.0533 23.1756 24.0133 23.2023 23.976C23.2769 23.8693 23.3649 23.752 23.4663 23.624C23.5676 23.496 23.6716 23.3733 23.7783 23.256C23.8796 23.1493 23.9836 23.0453 24.0903 22.944C24.1969 22.8427 24.3329 22.792 24.4983 22.792C24.6103 22.792 24.6663 22.8347 24.6663 22.92C24.6663 22.9947 24.6343 23.08 24.5703 23.176C24.5329 23.2347 24.4743 23.3333 24.3943 23.472C24.3143 23.6107 24.2316 23.7627 24.1463 23.928C24.0663 24.088 23.9969 24.2373 23.9383 24.376C23.8796 24.5147 23.8503 24.616 23.8503 24.68C23.8503 24.7547 23.8876 24.792 23.9622 24.792C24.0209 24.792 24.0929 24.7627 24.1783 24.704C24.2636 24.64 24.3516 24.5653 24.4423 24.48C24.5969 24.3307 24.7383 24.1653 24.8663 23.984C24.9996 23.8027 25.1143 23.6293 25.2103 23.464C25.2263 23.4373 25.2529 23.3893 25.2903 23.32C25.3329 23.2507 25.3756 23.184 25.4183 23.12C25.4663 23.056 25.5036 23.0187 25.5303 23.008C25.5569 22.9973 25.6103 22.968 25.6903 22.92C25.7703 22.872 25.8503 22.84 25.9303 22.824C26.0049 22.808 26.0609 22.8 26.0983 22.8C26.1569 22.8 26.1863 22.816 26.1863 22.848C26.1863 22.8907 26.1623 22.912 26.1143 22.912C26.0556 22.912 26.0023 22.928 25.9543 22.96C25.9063 22.9867 25.8689 23.0213 25.8423 23.064C25.7943 23.1333 25.7249 23.2587 25.6343 23.44C25.5489 23.6213 25.4529 23.832 25.3463 24.072C25.2449 24.3067 25.1436 24.5467 25.0423 24.792C24.9409 25.032 24.8476 25.2533 24.7623 25.456C24.6343 25.76 24.4876 26.056 24.3223 26.344C24.1569 26.6373 23.9623 26.8987 23.7383 27.128C23.5196 27.3627 23.2583 27.5467 22.9543 27.68C22.7729 27.76 22.5729 27.8 22.3542 27.8Z" fill="#B4B4B4"/>
<defs>
<filter id="filter0_d_725_4" x="1.59668" y="2.4209" width="30.812" height="20.2539" filterUnits="userSpaceOnUse" color-interpolation-filters="sRGB">
<feFlood flood-opacity="0" result="BackgroundImageFix"/>
<feColorMatrix in="SourceAlpha" type="matrix" values="0 0 0 0 0 0 0 0 0 0 0 0 0 0 0 0 0 0 127 0" result="hardAlpha"/>
<feOffset dx="3" dy="-2"/>
<feGaussianBlur stdDeviation="1"/>
<feComposite in2="hardAlpha" operator="out"/>
<feColorMatrix type="matrix" values="0 0 0 0 0 0 0 0 0 0 0 0 0 0 0 0 0 0 0.5 0"/>
<feBlend mode="normal" in2="BackgroundImageFix" result="effect1_dropShadow_725_4"/>
<feBlend mode="normal" in="SourceGraphic" in2="effect1_dropShadow_725_4" result="shape"/>
</filter>
</defs>
</svg>
