<svg width="32" height="32" viewBox="0 0 32 32" fill="none" xmlns="http://www.w3.org/2000/svg">
<rect width="32" height="32" rx="16" fill="#9D0253"/>
<path d="M4.37706 20.6C3.88106 20.6 3.47306 20.456 3.15306 20.168C2.84906 19.88 2.72906 19.448 2.79306 18.872C2.80906 18.664 2.85706 18.448 2.93706 18.224C3.03306 17.984 3.13706 17.752 3.24906 17.528C3.34506 17.304 3.44106 17.192 3.53706 17.192C3.61706 17.192 3.62506 17.256 3.56106 17.384C3.35306 17.816 3.24906 18.2 3.24906 18.536C3.24906 18.888 3.36906 19.152 3.60906 19.328C3.86506 19.504 4.19306 19.592 4.59306 19.592C5.37706 19.592 6.24106 19.344 7.18506 18.848C8.12906 18.336 9.10506 17.688 10.1131 16.904C11.1211 16.104 12.0891 15.272 13.0171 14.408C12.3931 14.376 11.8091 14.344 11.2651 14.312C10.7211 14.28 10.2411 14.264 9.82506 14.264C9.47306 14.264 9.04906 14.296 8.55306 14.36C8.05706 14.424 7.67306 14.592 7.40106 14.864C7.28906 14.976 7.18506 15.144 7.08906 15.368C7.00906 15.576 6.96906 15.792 6.96906 16.016C6.96906 16.08 6.96906 16.144 6.96906 16.208C6.98506 16.256 7.00106 16.312 7.01706 16.376C6.95306 16.344 6.83306 16.32 6.65706 16.304C6.49706 16.272 6.39306 16.168 6.34506 15.992C6.32906 15.944 6.32106 15.864 6.32106 15.752C6.32106 15.496 6.41706 15.288 6.60906 15.128C6.80106 14.952 7.03306 14.8 7.30506 14.672C7.57706 14.544 7.82506 14.432 8.04906 14.336C8.57706 14.112 9.12106 13.928 9.68106 13.784C10.2411 13.64 10.8091 13.568 11.3851 13.568C12.0411 13.568 12.8571 13.592 13.8331 13.64C14.5851 12.904 15.2811 12.208 15.9211 11.552C16.5611 10.896 17.0811 10.352 17.4811 9.92C18.0411 9.328 18.6331 8.824 19.2571 8.408C19.8971 7.976 20.5451 7.672 21.2011 7.496H19.8811C19.3211 7.496 18.7131 7.52 18.0571 7.568C17.4011 7.616 16.7851 7.72 16.2091 7.88C15.6331 8.04 15.1531 8.28 14.7691 8.6C14.5291 8.808 14.3451 9.048 14.2171 9.32C14.1051 9.576 14.0491 9.816 14.0491 10.04C14.0491 10.344 14.1371 10.552 14.3131 10.664C14.3291 10.664 14.3371 10.672 14.3371 10.688C14.3371 10.736 14.2811 10.792 14.1691 10.856C14.0571 10.904 13.9771 10.912 13.9291 10.88C13.7691 10.768 13.6251 10.544 13.4971 10.208C13.3851 9.856 13.3451 9.576 13.3771 9.368C13.4571 8.872 13.6731 8.472 14.0251 8.168C14.3931 7.848 14.8411 7.6 15.3691 7.424C15.9131 7.248 16.4811 7.128 17.0731 7.064C17.6811 7 18.2571 6.96 18.8011 6.944C19.3611 6.928 19.8331 6.92 20.2171 6.92H22.8331C22.8651 6.92 22.8731 6.928 22.8571 6.944C23.2571 6.768 23.6731 6.592 24.1051 6.416C24.5531 6.24 24.9371 6.152 25.2571 6.152C25.3371 6.152 25.4171 6.176 25.4971 6.224C25.5931 6.272 25.6411 6.32 25.6411 6.368C25.6411 6.448 25.4811 6.488 25.1611 6.488C25.0011 6.488 24.8331 6.52 24.6571 6.584C24.4971 6.632 24.2811 6.8 24.0091 7.088C23.7851 7.312 23.5051 7.672 23.1691 8.168C22.8331 8.664 22.4651 9.248 22.0651 9.92C21.6651 10.576 21.2651 11.28 20.8651 12.032C20.4651 12.768 20.0811 13.496 19.7131 14.216C19.3451 14.936 19.0251 15.6 18.7531 16.208C18.7211 16.304 18.6331 16.528 18.4891 16.88C18.3451 17.216 18.2091 17.592 18.0811 18.008C17.9531 18.408 17.8891 18.768 17.8891 19.088C17.8891 19.52 18.0411 19.736 18.3451 19.736C18.4891 19.736 18.6331 19.704 18.7771 19.64C18.9851 19.56 19.2011 19.44 19.4251 19.28C19.6491 19.12 19.8651 18.936 20.0731 18.728C20.4891 18.328 20.8411 17.944 21.1291 17.576C21.4171 17.192 21.5931 16.96 21.6571 16.88C21.7051 16.8 21.7611 16.76 21.8251 16.76C21.8891 16.76 21.9211 16.8 21.9211 16.88C21.9211 16.928 21.8971 16.992 21.8491 17.072C21.7371 17.232 21.5291 17.512 21.2251 17.912C20.9211 18.296 20.5611 18.688 20.1451 19.088C19.7451 19.488 19.3131 19.792 18.8491 20C18.7051 20.064 18.5531 20.112 18.3931 20.144C18.2331 20.192 18.0731 20.216 17.9131 20.216C17.5931 20.216 17.2971 20.104 17.0251 19.88C16.7691 19.656 16.6411 19.288 16.6411 18.776C16.6411 18.312 16.7291 17.816 16.9051 17.288C17.0971 16.744 17.2731 16.304 17.4331 15.968C17.7531 15.28 18.1291 14.512 18.5611 13.664C19.0091 12.816 19.4651 11.968 19.9291 11.12C20.4091 10.272 20.8491 9.504 21.2491 8.816C21.6491 8.128 21.9771 7.616 22.2331 7.28C21.9771 7.28 21.6331 7.384 21.2011 7.592C20.7691 7.784 20.3051 8.048 19.8091 8.384C19.3291 8.704 18.8811 9.08 18.4651 9.512C17.9691 10.024 17.3931 10.648 16.7371 11.384C16.0971 12.12 15.4011 12.888 14.6491 13.688C15.0171 13.704 15.3851 13.72 15.7531 13.736C16.1211 13.736 16.4891 13.736 16.8571 13.736C17.1131 13.736 17.3931 13.712 17.6971 13.664C18.0171 13.6 18.3131 13.504 18.5851 13.376C18.5851 13.376 18.5371 13.464 18.4411 13.64C18.3611 13.8 18.2171 13.968 18.0091 14.144C17.8171 14.304 17.5531 14.4 17.2171 14.432C16.9131 14.448 16.6091 14.464 16.3051 14.48C16.0011 14.48 15.6971 14.48 15.3931 14.48C15.1371 14.48 14.8811 14.48 14.6251 14.48C14.3851 14.48 14.1451 14.472 13.9051 14.456C13.1691 15.224 12.4011 15.976 11.6011 16.712C10.8011 17.432 9.99306 18.088 9.17706 18.68C8.36106 19.272 7.54506 19.736 6.72906 20.072C5.92906 20.424 5.14506 20.6 4.37706 20.6Z" fill="white"/>
<path d="M10.4147 23.19C10.368 23.19 10.3314 23.1767 10.3047 23.15C10.278 23.13 10.278 23.1133 10.3047 23.1C10.4514 23.0733 10.578 23.02 10.6847 22.94C10.7914 22.8533 10.878 22.7467 10.9447 22.62C11.0847 22.3867 11.2214 22.1533 11.3547 21.92C11.488 21.68 11.618 21.44 11.7447 21.2L12.7047 19.43C12.858 19.1567 12.9914 18.8933 13.1047 18.64C13.2247 18.3867 13.318 18.2033 13.3847 18.09C13.4314 18.0033 13.5114 17.9267 13.6247 17.86C13.7447 17.7867 13.8614 17.73 13.9747 17.69C13.9347 17.69 13.8947 17.69 13.8547 17.69C13.8147 17.6833 13.7714 17.68 13.7247 17.68C13.518 17.68 13.2914 17.6933 13.0447 17.72C12.8047 17.74 12.568 17.7733 12.3347 17.82C12.108 17.8667 11.908 17.93 11.7347 18.01C11.5614 18.09 11.4447 18.1867 11.3847 18.3C11.358 18.36 11.3347 18.42 11.3147 18.48C11.2947 18.54 11.2847 18.6 11.2847 18.66C11.2847 18.8133 11.338 18.9233 11.4447 18.99C11.4514 18.99 11.4547 18.9967 11.4547 19.01C11.4547 19.0233 11.4414 19.0367 11.4147 19.05C11.3947 19.0633 11.3747 19.0667 11.3547 19.06C11.2947 19.0267 11.2214 18.9467 11.1347 18.82C11.048 18.6867 10.9947 18.5767 10.9747 18.49C10.9547 18.41 10.9447 18.3367 10.9447 18.27C10.9447 18.0967 11.0014 17.9633 11.1147 17.87C11.228 17.77 11.3714 17.7 11.5447 17.66C11.718 17.6133 11.8947 17.5867 12.0747 17.58C12.2614 17.5667 12.4247 17.56 12.5647 17.56C12.778 17.56 13.0314 17.56 13.3247 17.56C13.618 17.5533 13.888 17.55 14.1347 17.55C14.1947 17.55 14.2614 17.55 14.3347 17.55C14.408 17.5433 14.4847 17.54 14.5647 17.54C14.7447 17.54 14.9314 17.55 15.1247 17.57C15.318 17.59 15.4947 17.6333 15.6547 17.7C15.8147 17.7667 15.938 17.87 16.0247 18.01C16.1114 18.1567 16.1547 18.3167 16.1547 18.49C16.1547 18.6567 16.1214 18.8233 16.0547 18.99C15.988 19.1567 15.908 19.3 15.8147 19.42C15.7547 19.4933 15.6847 19.5667 15.6047 19.64C15.5247 19.7133 15.4347 19.7833 15.3347 19.85C15.2347 19.9167 15.1247 19.98 15.0047 20.04C14.8914 20.0933 14.7547 20.1367 14.5947 20.17C14.588 20.17 14.5814 20.18 14.5747 20.2C14.5747 20.22 14.5814 20.23 14.5947 20.23C14.628 20.2367 14.6847 20.2467 14.7647 20.26C14.8514 20.2667 14.928 20.2767 14.9947 20.29C15.228 20.3367 15.4214 20.4367 15.5747 20.59C15.7347 20.7367 15.8147 20.9367 15.8147 21.19C15.8147 21.4767 15.738 21.74 15.5847 21.98C15.438 22.22 15.248 22.4267 15.0147 22.6C14.7814 22.7667 14.538 22.8967 14.2847 22.99C13.9647 23.11 13.598 23.17 13.1847 23.17C12.938 23.17 12.6814 23.1467 12.4147 23.1C12.148 23.0533 11.9047 22.9733 11.6847 22.86C11.638 22.8333 11.5914 22.8133 11.5447 22.8C11.498 22.78 11.448 22.77 11.3947 22.77C11.3014 22.77 11.2014 22.7967 11.0947 22.85C11.028 22.8767 10.9414 22.9267 10.8347 23C10.728 23.0733 10.608 23.1333 10.4747 23.18C10.4614 23.1867 10.4414 23.19 10.4147 23.19ZM12.8647 23.03C13.038 23.03 13.2114 23.0133 13.3847 22.98C13.558 22.94 13.7147 22.8933 13.8547 22.84C14.1014 22.7467 14.328 22.6167 14.5347 22.45C14.7414 22.2767 14.908 22.0733 15.0347 21.84C15.168 21.6 15.2347 21.3333 15.2347 21.04C15.2347 20.8467 15.1847 20.7 15.0847 20.6C14.9847 20.4933 14.858 20.42 14.7047 20.38C14.5514 20.34 14.3914 20.32 14.2247 20.32C14.098 20.32 13.978 20.3267 13.8647 20.34C13.7514 20.3533 13.648 20.37 13.5547 20.39C13.368 20.4233 13.2014 20.46 13.0547 20.5C13.028 20.4867 13.0314 20.4633 13.0647 20.43C13.098 20.39 13.1414 20.3467 13.1947 20.3C13.2547 20.2533 13.3014 20.2167 13.3347 20.19C13.348 20.1767 13.3747 20.1567 13.4147 20.13C13.4614 20.0967 13.498 20.08 13.5247 20.08C13.8514 20.08 14.1414 20.06 14.3947 20.02C14.6547 19.98 14.878 19.8833 15.0647 19.73C15.2514 19.57 15.4047 19.3233 15.5247 18.99C15.5847 18.8167 15.6147 18.6467 15.6147 18.48C15.6147 18.2867 15.568 18.12 15.4747 17.98C15.3814 17.8333 15.2314 17.7467 15.0247 17.72C14.998 17.7133 14.968 17.71 14.9347 17.71C14.9014 17.71 14.868 17.71 14.8347 17.71C14.708 17.71 14.568 17.7267 14.4147 17.76C14.268 17.7933 14.158 17.8567 14.0847 17.95C13.918 18.17 13.758 18.42 13.6047 18.7C13.4514 18.9733 13.3047 19.2533 13.1647 19.54C13.0247 19.82 12.8914 20.0833 12.7647 20.33C12.6114 20.63 12.4547 20.9333 12.2947 21.24C12.1347 21.5467 11.978 21.8567 11.8247 22.17C11.7847 22.25 11.7647 22.3267 11.7647 22.4C11.7647 22.5333 11.848 22.6633 12.0147 22.79C12.128 22.8767 12.258 22.94 12.4047 22.98C12.558 23.0133 12.7114 23.03 12.8647 23.03ZM16.8299 23.08C16.5566 23.08 16.3666 23.0267 16.2599 22.92C16.1533 22.8133 16.0999 22.6833 16.0999 22.53C16.0999 22.3367 16.1499 22.13 16.2499 21.91C16.3566 21.69 16.4566 21.5033 16.5499 21.35C16.6566 21.19 16.7999 21.0233 16.9799 20.85C17.1599 20.6767 17.3566 20.53 17.5699 20.41C17.7833 20.29 17.9899 20.23 18.1899 20.23C18.3633 20.23 18.4833 20.2733 18.5499 20.36C18.6166 20.44 18.6499 20.5367 18.6499 20.65C18.6499 20.8567 18.5866 21.0267 18.4599 21.16C18.3399 21.2933 18.1899 21.4033 18.0099 21.49C17.8299 21.57 17.6566 21.6367 17.4899 21.69C17.3899 21.7167 17.2733 21.7433 17.1399 21.77C17.0066 21.7967 16.8799 21.81 16.7599 21.81C16.7133 21.93 16.6766 22.0467 16.6499 22.16C16.6233 22.2733 16.6099 22.3767 16.6099 22.47C16.6099 22.5833 16.6366 22.6767 16.6899 22.75C16.7499 22.8233 16.8466 22.86 16.9799 22.86C17.0333 22.86 17.0966 22.8533 17.1699 22.84C17.2433 22.8267 17.3233 22.8067 17.4099 22.78C17.6099 22.7133 17.8066 22.6067 17.9999 22.46C18.1933 22.3133 18.3699 22.1567 18.5299 21.99C18.6966 21.8167 18.8233 21.6733 18.9099 21.56C18.9299 21.58 18.9399 21.6033 18.9399 21.63C18.9399 21.6633 18.9166 21.7167 18.8699 21.79C18.7366 21.9767 18.5633 22.17 18.3499 22.37C18.1366 22.57 17.8999 22.74 17.6399 22.88C17.3799 23.0133 17.1099 23.08 16.8299 23.08ZM16.8399 21.61C16.9266 21.6167 17.0233 21.6167 17.1299 21.61C17.2433 21.5967 17.3533 21.5733 17.4599 21.54C17.7333 21.46 17.9299 21.3333 18.0499 21.16C18.1766 20.98 18.2399 20.82 18.2399 20.68C18.2399 20.6 18.2233 20.5333 18.1899 20.48C18.1566 20.4267 18.1033 20.4 18.0299 20.4C17.8366 20.4 17.6633 20.4733 17.5099 20.62C17.3566 20.76 17.2233 20.9233 17.1099 21.11C16.9966 21.2967 16.9066 21.4633 16.8399 21.61ZM20.1102 23.03C20.0435 23.03 19.9868 23.0167 19.9402 22.99C19.8935 22.9633 19.8702 22.9133 19.8702 22.84C19.8702 22.7467 19.8935 22.64 19.9402 22.52C19.9868 22.4 20.0402 22.2833 20.1002 22.17C20.1602 22.05 20.2135 21.9533 20.2602 21.88C20.0268 22.1267 19.7835 22.36 19.5302 22.58C19.4035 22.6867 19.2635 22.7867 19.1102 22.88C18.9568 22.9733 18.7935 23.02 18.6202 23.02C18.5535 23.02 18.5068 23 18.4802 22.96C18.4535 22.9133 18.4402 22.86 18.4402 22.8C18.4402 22.7667 18.4435 22.7433 18.4502 22.73C18.4835 22.47 18.5668 22.2 18.7002 21.92C18.8335 21.64 18.9968 21.3767 19.1902 21.13C19.3835 20.8833 19.5802 20.6833 19.7802 20.53C20.0068 20.3567 20.2568 20.27 20.5302 20.27H21.6802C21.7135 20.27 21.7302 20.2833 21.7302 20.31C21.7302 20.3633 21.7002 20.39 21.6402 20.39C21.5735 20.39 21.5068 20.4333 21.4402 20.52C21.3735 20.6 21.3235 20.6667 21.2902 20.72C21.2435 20.7933 21.1702 20.9167 21.0702 21.09C20.9702 21.2633 20.8668 21.4533 20.7602 21.66C20.6602 21.86 20.5735 22.0467 20.5002 22.22C20.4268 22.3933 20.3902 22.52 20.3902 22.6C20.3902 22.6933 20.4368 22.74 20.5302 22.74C20.6302 22.74 20.7435 22.6933 20.8702 22.6C20.9968 22.5067 21.1235 22.3933 21.2502 22.26C21.3835 22.12 21.5035 21.9833 21.6102 21.85C21.7235 21.71 21.8135 21.6 21.8802 21.52C21.9202 21.56 21.9168 21.6167 21.8702 21.69C21.8302 21.7567 21.7935 21.81 21.7602 21.85C21.6268 22.0233 21.4735 22.2033 21.3002 22.39C21.1268 22.57 20.9368 22.7233 20.7302 22.85C20.5302 22.97 20.3235 23.03 20.1102 23.03ZM19.0302 22.68C19.1102 22.68 19.2202 22.6233 19.3602 22.51C19.5068 22.39 19.6635 22.2433 19.8302 22.07C19.9968 21.89 20.1535 21.7033 20.3002 21.51C20.4468 21.31 20.5668 21.13 20.6602 20.97C20.7602 20.8033 20.8102 20.6767 20.8102 20.59C20.8102 20.5167 20.7868 20.4667 20.7402 20.44C20.7002 20.4133 20.6468 20.4 20.5802 20.4C20.4735 20.4 20.3568 20.44 20.2302 20.52C20.1102 20.5933 20.0135 20.6667 19.9402 20.74C19.8602 20.8133 19.7635 20.93 19.6502 21.09C19.5435 21.2433 19.4368 21.4133 19.3302 21.6C19.2235 21.7867 19.1335 21.9667 19.0602 22.14C18.9868 22.3133 18.9502 22.4533 18.9502 22.56C18.9502 22.64 18.9768 22.68 19.0302 22.68ZM22.2496 23.03C22.1829 23.03 22.1263 23.0167 22.0796 22.99C22.0329 22.9633 22.0096 22.9133 22.0096 22.84C22.0096 22.7467 22.0329 22.6367 22.0796 22.51C22.1329 22.3833 22.1896 22.2567 22.2496 22.13C22.3096 22.0033 22.3596 21.9 22.3996 21.82C22.4796 21.6667 22.5563 21.5133 22.6296 21.36C22.7029 21.2067 22.7663 21.0767 22.8196 20.97C22.8729 20.87 22.8996 20.8033 22.8996 20.77C22.8996 20.7167 22.8596 20.7167 22.7796 20.77C22.7063 20.8233 22.6363 20.8767 22.5696 20.93C22.4229 21.07 22.2696 21.2367 22.1096 21.43C21.9496 21.6167 21.8263 21.7667 21.7396 21.88C21.7196 21.9067 21.7029 21.92 21.6896 21.92C21.6763 21.92 21.6696 21.9033 21.6696 21.87C21.6696 21.8167 21.6863 21.7667 21.7196 21.72C21.8129 21.5867 21.9229 21.44 22.0496 21.28C22.1763 21.12 22.3063 20.9667 22.4396 20.82C22.5663 20.6867 22.6963 20.5567 22.8296 20.43C22.9629 20.3033 23.1329 20.24 23.3396 20.24C23.4796 20.24 23.5496 20.2933 23.5496 20.4C23.5496 20.4933 23.5096 20.6 23.4296 20.72C23.3829 20.7933 23.3096 20.9167 23.2096 21.09C23.1096 21.2633 23.0063 21.4533 22.8996 21.66C22.7996 21.86 22.7129 22.0467 22.6396 22.22C22.5663 22.3933 22.5296 22.52 22.5296 22.6C22.5296 22.6933 22.5763 22.74 22.6696 22.74C22.7429 22.74 22.8329 22.7033 22.9396 22.63C23.0463 22.55 23.1563 22.4567 23.2696 22.35C23.4763 22.15 23.6629 21.9333 23.8296 21.7C24.0029 21.46 24.1496 21.23 24.2696 21.01C24.3963 20.79 24.4963 20.61 24.5696 20.47C24.5829 20.4433 24.5963 20.4133 24.6096 20.38C24.6296 20.34 24.6596 20.3167 24.6996 20.31C24.7396 20.3033 24.8263 20.3 24.9596 20.3C25.0929 20.3 25.2163 20.2733 25.3296 20.22H25.3496C25.3696 20.22 25.3796 20.23 25.3796 20.25C25.3796 20.3033 25.3363 20.3433 25.2496 20.37C25.1696 20.3967 25.0763 20.4767 24.9696 20.61C24.8696 20.7433 24.7696 20.9067 24.6696 21.1C24.5696 21.2867 24.4796 21.48 24.3996 21.68C24.3196 21.88 24.2596 22.0633 24.2196 22.23C24.1796 22.3967 24.1696 22.52 24.1896 22.6C24.2163 22.6933 24.2629 22.74 24.3296 22.74C24.4163 22.74 24.5363 22.6867 24.6896 22.58C24.8496 22.4733 25.0129 22.3467 25.1796 22.2C25.3463 22.0467 25.4829 21.9067 25.5896 21.78C25.6363 21.7267 25.6796 21.6733 25.7196 21.62C25.7596 21.5667 25.7863 21.5333 25.7996 21.52C25.8063 21.5267 25.8129 21.54 25.8196 21.56C25.8263 21.5733 25.8296 21.5867 25.8296 21.6C25.8229 21.6467 25.8063 21.6933 25.7796 21.74C25.7529 21.78 25.7229 21.8167 25.6896 21.85C25.5629 22.0167 25.4096 22.1933 25.2296 22.38C25.0563 22.56 24.8663 22.7133 24.6596 22.84C24.4596 22.9667 24.2529 23.03 24.0396 23.03C23.9729 23.03 23.8963 23.0133 23.8096 22.98C23.7296 22.9467 23.6896 22.8733 23.6896 22.76C23.6896 22.6733 23.7129 22.5567 23.7596 22.41C23.8063 22.2567 23.8563 22.1067 23.9096 21.96C23.9696 21.8067 24.0196 21.6933 24.0596 21.62C23.9729 21.7467 23.8663 21.89 23.7396 22.05C23.6196 22.2033 23.4963 22.34 23.3696 22.46C23.2029 22.62 23.0229 22.7567 22.8296 22.87C22.6429 22.9767 22.4496 23.03 22.2496 23.03ZM26.0154 23.03C25.9487 23.03 25.8921 23.0167 25.8454 22.99C25.7987 22.9633 25.7754 22.9133 25.7754 22.84C25.7754 22.7467 25.7987 22.6367 25.8454 22.51C25.8987 22.3833 25.9554 22.2567 26.0154 22.13C26.0754 22.0033 26.1254 21.9 26.1654 21.82C26.1987 21.76 26.2421 21.6667 26.2954 21.54C26.3554 21.4067 26.4154 21.27 26.4754 21.13C26.5421 20.9833 26.5954 20.86 26.6354 20.76C26.6821 20.66 26.7054 20.61 26.7054 20.61C26.6454 20.6767 26.5654 20.77 26.4654 20.89C26.3721 21.01 26.2687 21.1367 26.1554 21.27C26.0487 21.3967 25.9487 21.5167 25.8554 21.63C25.7687 21.7433 25.7054 21.8267 25.6654 21.88C25.6454 21.9067 25.6287 21.92 25.6154 21.92C25.6021 21.92 25.5954 21.9033 25.5954 21.87C25.5954 21.8167 25.6121 21.7667 25.6454 21.72C25.7254 21.62 25.8221 21.5 25.9354 21.36C26.0487 21.2133 26.1621 21.0667 26.2754 20.92C26.3954 20.7733 26.4987 20.6433 26.5854 20.53C26.5321 20.53 26.4621 20.5333 26.3754 20.54C26.2954 20.5467 26.2221 20.5567 26.1554 20.57C26.0887 20.5767 26.0521 20.58 26.0454 20.58C26.0121 20.58 26.0154 20.5533 26.0554 20.5C26.0954 20.4467 26.1487 20.3933 26.2154 20.34C26.2821 20.2867 26.3321 20.26 26.3654 20.26C26.3721 20.26 26.4254 20.2633 26.5254 20.27C26.6254 20.27 26.6987 20.27 26.7454 20.27C26.8787 20.09 27.0087 19.8833 27.1354 19.65C27.2687 19.4167 27.3987 19.16 27.5254 18.88C27.5787 18.8733 27.6687 18.8367 27.7954 18.77C27.9287 18.6967 28.0321 18.6233 28.1054 18.55C28.1387 18.5167 28.1654 18.5 28.1854 18.5C28.2254 18.5 28.2254 18.5267 28.1854 18.58C28.1387 18.6333 28.0587 18.7467 27.9454 18.92C27.8321 19.0867 27.7054 19.29 27.5654 19.53C27.4254 19.7633 27.2921 20.01 27.1654 20.27H27.9754C28.0487 20.27 28.0854 20.28 28.0854 20.3C28.0854 20.3267 28.0354 20.3533 27.9354 20.38C27.8221 20.4133 27.7021 20.4333 27.5754 20.44C27.4554 20.4467 27.3421 20.46 27.2354 20.48C27.1354 20.5 27.0621 20.5433 27.0154 20.61C26.9754 20.6567 26.9187 20.7567 26.8454 20.91C26.7721 21.0633 26.6921 21.24 26.6054 21.44C26.5254 21.6333 26.4554 21.83 26.3954 22.03C26.3354 22.2233 26.2987 22.3867 26.2854 22.52V22.56C26.2854 22.6133 26.3021 22.6567 26.3354 22.69C26.3687 22.7233 26.4021 22.74 26.4354 22.74C26.5221 22.74 26.6321 22.6867 26.7654 22.58C26.9054 22.4733 27.0487 22.3467 27.1954 22.2C27.3421 22.0467 27.4687 21.9067 27.5754 21.78C27.6221 21.7267 27.6621 21.6767 27.6954 21.63C27.7354 21.5833 27.7587 21.5533 27.7654 21.54C27.7787 21.5667 27.7854 21.5867 27.7854 21.6C27.7854 21.64 27.7721 21.6833 27.7454 21.73C27.7254 21.7767 27.7021 21.8167 27.6754 21.85C27.5487 22.0167 27.3954 22.1933 27.2154 22.38C27.0354 22.56 26.8421 22.7133 26.6354 22.84C26.4354 22.9667 26.2287 23.03 26.0154 23.03ZM26.5678 26.5C26.3145 26.5 26.0711 26.44 25.8378 26.32C25.5978 26.2067 25.4211 26.03 25.3078 25.79C25.2678 25.7033 25.2411 25.61 25.2278 25.51C25.2145 25.4167 25.2078 25.3233 25.2078 25.23V25.12C25.2078 25.0667 25.2145 25.0167 25.2278 24.97C25.2411 24.93 25.2745 24.91 25.3278 24.91C25.3411 24.91 25.3478 24.9167 25.3478 24.93C25.3478 24.97 25.3445 25.01 25.3378 25.05C25.3311 25.09 25.3278 25.1333 25.3278 25.18C25.3278 25.4867 25.4278 25.72 25.6278 25.88C25.8211 26.04 26.0645 26.12 26.3578 26.12C26.4778 26.12 26.6011 26.1067 26.7278 26.08C26.8545 26.0533 26.9745 26.0167 27.0878 25.97C27.5078 25.79 27.8711 25.5333 28.1778 25.2C28.4911 24.8733 28.7645 24.5033 28.9978 24.09C29.2311 23.6767 29.4411 23.2567 29.6278 22.83C29.7345 22.5767 29.8278 22.33 29.9078 22.09C29.9945 21.85 30.0711 21.6333 30.1378 21.44C30.0711 21.5333 29.9845 21.6467 29.8778 21.78C29.7711 21.9133 29.6645 22.0433 29.5578 22.17C29.4511 22.29 29.3578 22.3867 29.2778 22.46C29.1111 22.62 28.9311 22.7567 28.7378 22.87C28.5511 22.9767 28.3578 23.03 28.1578 23.03C28.0911 23.03 28.0345 23.0167 27.9878 22.99C27.9411 22.9633 27.9178 22.9133 27.9178 22.84C27.9178 22.7467 27.9411 22.6367 27.9878 22.51C28.0411 22.3833 28.0978 22.2567 28.1578 22.13C28.2178 22.0033 28.2678 21.9 28.3078 21.82C28.3878 21.6667 28.4645 21.5133 28.5378 21.36C28.6111 21.2067 28.6745 21.0767 28.7278 20.97C28.7811 20.87 28.8078 20.8033 28.8078 20.77C28.8078 20.7167 28.7678 20.7167 28.6878 20.77C28.6145 20.8233 28.5445 20.8767 28.4778 20.93C28.3311 21.07 28.1778 21.2367 28.0178 21.43C27.8578 21.6167 27.7345 21.7667 27.6478 21.88C27.6278 21.9067 27.6111 21.92 27.5978 21.92C27.5845 21.92 27.5778 21.9033 27.5778 21.87C27.5778 21.8167 27.5945 21.7667 27.6278 21.72C27.7211 21.5867 27.8311 21.44 27.9578 21.28C28.0845 21.12 28.2145 20.9667 28.3478 20.82C28.4745 20.6867 28.6045 20.5567 28.7378 20.43C28.8711 20.3033 29.0411 20.24 29.2478 20.24C29.3878 20.24 29.4578 20.2933 29.4578 20.4C29.4578 20.4933 29.4178 20.6 29.3378 20.72C29.2911 20.7933 29.2178 20.9167 29.1178 21.09C29.0178 21.2633 28.9145 21.4533 28.8078 21.66C28.7078 21.86 28.6211 22.0467 28.5478 22.22C28.4745 22.3933 28.4378 22.52 28.4378 22.6C28.4378 22.6933 28.4845 22.74 28.5778 22.74C28.6511 22.74 28.7411 22.7033 28.8478 22.63C28.9545 22.55 29.0645 22.4567 29.1778 22.35C29.3711 22.1633 29.5478 21.9567 29.7078 21.73C29.8745 21.5033 30.0178 21.2867 30.1378 21.08C30.1578 21.0467 30.1911 20.9867 30.2378 20.9C30.2911 20.8133 30.3445 20.73 30.3978 20.65C30.4578 20.57 30.5045 20.5233 30.5378 20.51C30.5711 20.4967 30.6378 20.46 30.7378 20.4C30.8378 20.34 30.9378 20.3 31.0378 20.28C31.1311 20.26 31.2011 20.25 31.2478 20.25C31.3211 20.25 31.3578 20.27 31.3578 20.31C31.3578 20.3633 31.3278 20.39 31.2678 20.39C31.1945 20.39 31.1278 20.41 31.0678 20.45C31.0078 20.4833 30.9611 20.5267 30.9278 20.58C30.8678 20.6667 30.7811 20.8233 30.6678 21.05C30.5611 21.2767 30.4411 21.54 30.3078 21.84C30.1811 22.1333 30.0545 22.4333 29.9278 22.74C29.8011 23.04 29.6845 23.3167 29.5778 23.57C29.4178 23.95 29.2345 24.32 29.0278 24.68C28.8211 25.0467 28.5778 25.3733 28.2978 25.66C28.0245 25.9533 27.6978 26.1833 27.3178 26.35C27.0911 26.45 26.8411 26.5 26.5678 26.5Z" fill="#B4B4B4"/>
</svg>
